<?xml version="1.0" encoding="iso-8859-1"?>
<!-- Uploaded to: SVG Repo, www.svgrepo.com, Generator: SVG Repo Mixer Tools -->
<svg fill="#FE7F2D" height="40px" width="40px" version="1.1" id="Layer_1" xmlns="http://www.w3.org/2000/svg" xmlns:xlink="http://www.w3.org/1999/xlink" 
	 viewBox="0 0 491.52 491.52" xml:space="preserve">
<g>
	<g>
		<path d="M473.518,140.882v-0.02c-23.204-23.183-63.672-23.204-86.876,0.02l-38.482,38.482V122.88c0-4.649-1.577-9.155-4.485-12.8
			l-81.92-102.4C257.864,2.826,251.986,0,245.76,0H20.48C9.175,0,0,9.175,0,20.48v450.56c0,11.305,9.175,20.48,20.48,20.48h307.2
			c11.305,0,20.48-9.175,20.48-20.48V353.116l125.358-125.338c11.592-11.612,18.002-27.054,18.002-43.459
			C491.52,167.916,485.13,152.474,473.518,140.882z M143.36,409.6H81.92c-11.305,0-20.48-9.175-20.48-20.48
			c0-11.305,9.175-20.48,20.48-20.48h61.44c11.305,0,20.48,9.175,20.48,20.48C163.84,400.425,154.665,409.6,143.36,409.6z
			 M143.36,327.68H81.92c-11.305,0-20.48-9.175-20.48-20.48c0-11.305,9.175-20.48,20.48-20.48h61.44
			c11.305,0,20.48,9.175,20.48,20.48C163.84,318.505,154.665,327.68,143.36,327.68z M143.36,245.76H81.92
			c-11.305,0-20.48-9.175-20.48-20.48c0-11.305,9.175-20.48,20.48-20.48h61.44c11.305,0,20.48,9.175,20.48,20.48
			C163.84,236.585,154.665,245.76,143.36,245.76z M225.28,266.24c-5.407,0-10.629-2.15-14.479-6.001l-20.48-20.48
			c-8.008-8.008-8.008-20.951,0-28.959c8.008-8.008,20.951-8.008,28.959,0l2.826,2.806l27.095-40.653
			c6.267-9.4,18.985-11.981,28.406-5.673c9.4,6.267,11.94,18.985,5.673,28.406l-40.96,61.44c-3.4,5.099-8.929,8.417-15.012,9.011
			C226.611,266.219,225.956,266.24,225.28,266.24z M444.559,198.799L313.201,330.158l-51.917,51.917l-32.993,4.035l4.035-32.993
			l183.276-183.275c7.721-7.741,21.238-7.741,28.959,0c3.871,3.871,6.001,9.011,6.001,14.479
			C450.56,189.788,448.43,194.929,444.559,198.799z"/>
	</g>
</g>
</svg>